<?xml version="1.0" standalone="no"?>
<!DOCTYPE svg PUBLIC "-//W3C//DTD SVG 20010904//EN"
 "http://www.w3.org/TR/2001/REC-SVG-20010904/DTD/svg10.dtd">
<svg version="1.0" xmlns="http://www.w3.org/2000/svg"
 width="270.000000pt" height="270.000000pt" viewBox="0 0 270.000000 270.000000"
 preserveAspectRatio="xMidYMid meet">
<metadata>
Created by potrace 1.14, written by Peter Selinger 2001-2017
</metadata>
<g transform="translate(0.000000,270.000000) scale(0.100000,-0.100000)"
fill="#000000" stroke="none">
<path d="M360 1934 c-179 -312 -325 -576 -324 -588 1 -11 147 -273 326 -581
l325 -560 665 -3 664 -2 333 576 332 575 -330 572 -330 572 -668 2 -668 2
-325 -565z m1616 -223 c113 -195 204 -359 202 -365 -2 -7 -95 -170 -207 -364
l-203 -352 -416 2 -417 3 -207 358 -207 357 207 360 207 360 419 -3 418 -2
204 -354z"/>
</g>
</svg>
